<svg width="69" height="71" viewBox="0 0 69 71" fill="none" xmlns="http://www.w3.org/2000/svg">
<path d="M66.3772 40.1549C66.2352 40.4673 66.0932 40.7798 65.937 41.078L63.4233 55.0663C63.2387 55.1231 63.0683 55.2226 62.9121 55.3078C62.0458 55.819 61.1511 56.3445 60.1712 56.5717C59.6315 56.6995 59.0635 56.7279 58.5096 56.7705C57.5581 56.8273 56.5356 56.8557 55.7546 56.3161C55.5558 56.174 55.3711 55.9894 55.1439 55.8758C54.9167 55.7622 54.6327 55.7196 54.4338 55.8616C54.377 55.9042 54.3202 55.9752 54.2492 56.0036C53.9936 56.1456 53.7238 55.89 53.5392 55.677C53.3971 55.5066 53.2551 55.322 53.1131 55.1516L52.9001 54.1007C49.8468 55.8616 45.4444 58.4037 45.4444 58.4037C45.4444 58.4037 44.3651 59.1563 42.4479 59.9658L40.9851 68.0464C40.8005 68.1032 40.6301 68.2026 40.4739 68.2878C39.6076 68.7991 38.7129 69.3245 37.733 69.5517C37.1934 69.6796 36.6253 69.708 36.0715 69.7506C35.12 69.8074 34.0975 69.8358 33.3164 69.2961C33.1176 69.1541 32.933 68.9695 32.7058 68.8559C32.4785 68.7423 32.1945 68.6997 31.9957 68.8417C31.9389 68.8843 31.8821 68.9553 31.8111 68.9837C31.5554 69.1257 31.2856 68.8701 31.101 68.6571C30.959 68.4866 30.817 68.302 30.675 68.1316L29.3542 61.599C28.1045 61.4144 26.8122 61.1445 25.4631 60.7327C24.611 60.4771 23.8015 60.2072 23.0204 59.909C22.6228 60.0936 22.2109 60.2498 21.7707 60.3493C21.231 60.4771 20.663 60.5055 20.1091 60.5481C19.1576 60.6049 18.1351 60.6333 17.3541 60.0936C17.1553 59.9516 16.9706 59.767 16.7434 59.6534C16.5162 59.5398 16.2322 59.4972 16.0333 59.6392C15.9765 59.6818 15.9197 59.7528 15.8487 59.7812C15.5931 59.9232 15.3233 59.6676 15.1387 59.4546C14.9966 59.2841 14.8546 59.0995 14.7126 58.9291L13.8889 54.8675C13.7753 54.7681 13.6475 54.6829 13.5339 54.5835C12.128 55.3362 9.99776 55.1089 7.61193 53.7314C3.43673 51.2888 0 46.1905 0 42.3845C0 39.6011 1.84618 38.2519 4.47343 38.678C3.05329 28.7086 7.12909 19.7901 7.12909 19.7901C7.12909 19.7901 10.3244 12.7889 24.2985 4.55207C38.2727 -3.68473 52.8859 -0.0917793 61.9464 10.1048C71.0068 20.3014 69.3737 33.3951 66.3772 40.1549Z" fill="#FFB6B6"/>
<path d="M41.1414 3.0752L41.5958 3.33082C42.036 3.58645 42.036 4.22551 41.5958 4.48113L30.1353 11.099C29.9365 11.2126 29.6809 11.2126 29.4678 11.099L29.0134 10.8433C28.5731 10.5877 28.5731 9.94866 29.0134 9.69304L40.4739 3.0752C40.6727 2.96159 40.9283 2.96159 41.1414 3.0752ZM4.00477 43.6911C3.15269 43.1941 2.45682 43.6059 2.45682 44.5858C2.45682 45.5657 3.15269 46.7728 4.00477 47.2699C4.85685 47.7669 5.55272 47.3551 5.55272 46.3752C5.55272 45.3953 4.85685 44.1882 4.00477 43.6911ZM10.4806 47.4261C9.62851 46.929 8.93265 47.3409 8.93265 48.3208C8.93265 49.3007 9.62851 50.5078 10.4806 51.0048C11.3327 51.5019 12.0285 51.09 12.0285 50.1101C12.0285 49.1302 11.3327 47.9231 10.4806 47.4261ZM23.8015 10.8718L23.2192 10.5593C22.2535 10.0055 20.1091 8.62793 16.7292 5.80186C16.6866 5.75926 16.6298 5.71665 16.5872 5.68825C13.2783 2.97579 8.63442 2.56395 4.89946 4.65155C4.23199 5.02079 3.74915 5.29061 3.74915 5.29061L8.71963 8.00307C8.93265 9.15339 9.27348 10.4883 9.78473 11.9937C10.296 13.5132 12.2558 12.5333 15.0818 13.2576C15.5221 12.9167 16.0191 12.5759 16.5588 12.2635L19.044 13.6268L23.8015 10.8718ZM40.7437 31.4637L45.3308 28.8081C45.3308 28.8081 49.0231 19.8896 45.1603 11.0564C44.3083 9.09658 41.9366 8.3013 40.0621 9.3096C40.0479 9.3238 40.0194 9.3238 40.0052 9.338L35.5744 11.9227L40.7437 26.4649V31.4637ZM29.3684 61.5706L29.7377 63.4026C35.049 64.0843 39.352 62.9766 42.107 61.8831L42.4621 59.9517C39.6644 61.1304 35.0632 62.3801 29.3684 61.5706ZM19.9529 48.477C19.9529 44.671 16.5162 39.5869 12.3268 37.1585C9.85574 35.7242 7.64032 35.5395 6.24859 36.4058L1.51953 39.1467C2.91127 38.2662 5.14088 38.4508 7.62612 39.8852C11.8155 42.3136 15.2523 47.3977 15.2523 51.2036C15.2523 52.7232 14.6984 53.8167 13.7753 54.4274L18.3482 51.8001C19.3423 51.1894 19.9529 50.0675 19.9529 48.477ZM13.9031 54.825L14.3292 56.9268C15.9481 58.1339 17.9363 59.3836 20.2937 60.5055C20.7908 60.4771 21.2878 60.4345 21.7849 60.3209C22.2109 60.2215 22.6228 60.0653 23.0346 59.8807C19.186 58.4463 16.1611 56.586 13.9031 54.825ZM53.0705 53.9871C53.0137 54.0155 52.9569 54.0581 52.9001 54.0865L53.1131 55.1374C53.2267 55.2794 53.3403 55.4073 53.4539 55.5493C56.3794 53.8309 61.9322 50.2806 65.4541 43.8047L65.9511 41.0781C62.3156 48.4486 56.0102 52.2972 53.0705 53.9871ZM60.1286 8.21609C60.5262 7.88946 61.1227 7.49183 61.8612 7.2646C61.8754 7.66224 61.9322 8.04568 62.0316 8.42912C62.344 9.57943 63.0541 10.4457 64.034 10.8718C64.7866 11.1984 65.6103 11.099 66.2636 10.6019C66.9594 10.0765 67.3145 9.16759 67.1867 8.3013C67.0873 7.69064 66.6612 6.56874 64.9002 5.94388C64.4458 5.78766 64.0198 5.68825 63.6079 5.64565C63.7073 5.36162 63.8351 5.09179 63.9914 4.80777C64.1618 4.49534 64.0908 4.0977 63.7925 3.89888L63.7215 3.85627C63.3807 3.61485 62.9121 3.72846 62.7132 4.0835C62.415 4.60895 62.1878 5.1628 62.0458 5.71665C60.7108 5.97228 59.6599 6.69655 59.0493 7.222C59.4043 7.54863 59.7736 7.87526 60.1286 8.21609ZM64.389 7.33561C65.1701 7.61964 65.6529 8.04568 65.7239 8.54273C65.7523 8.69894 65.7381 8.86936 65.6813 9.01137C65.6245 9.18179 65.5109 9.338 65.3689 9.45161C65.2127 9.56522 64.9571 9.67884 64.6304 9.53682C64.0624 9.2812 63.6505 8.75575 63.4517 8.04568C63.3665 7.74745 63.3239 7.43502 63.3381 7.10839C63.6647 7.12259 64.0198 7.2078 64.389 7.33561Z" fill="#FF9F9F"/>
<path d="M41.2833 66.3849L40.9282 68.3731C40.8004 69.0121 40.3176 69.6512 39.4655 70.134C37.7187 71.1423 35.0205 71.2701 33.0323 70.5175L32.4926 68.9979L31.9672 69.9778C31.2855 69.5234 30.8879 68.9837 30.7601 68.4157L30.334 66.2997C30.4618 67.0097 30.9873 67.6914 31.9104 68.2169C34.069 69.4666 37.5909 69.4666 39.7353 68.2169C40.6158 67.7198 41.1271 67.0665 41.2833 66.3849ZM62.1593 55.2652C60.0007 56.5149 56.4787 56.5149 54.3343 55.2652C53.7095 54.9102 53.2692 54.4841 53.0136 54.0297C52.9568 54.0581 52.9 54.0865 52.9 54.0865L53.1698 55.4498C53.2976 56.0179 53.6953 56.5575 54.3769 57.012L54.9024 56.0321L55.442 57.5516C57.4302 58.2901 60.1285 58.1623 61.8753 57.1682C62.7273 56.6711 63.2102 56.0463 63.338 55.4072L63.693 53.419C63.5652 54.1007 63.054 54.754 62.1593 55.2652ZM19.3422 34.2472C18.3197 33.6649 17.496 34.1336 17.496 35.3123C17.496 36.491 18.3339 37.9253 19.3422 38.5218C20.3646 39.104 21.1883 38.6354 21.1883 37.4567C21.2025 36.278 20.3646 34.8436 19.3422 34.2472ZM9.37279 28.4814C8.35029 27.8992 7.52661 28.3678 7.52661 29.5465C7.52661 30.7252 8.36449 32.1596 9.37279 32.756C10.3953 33.3383 11.219 32.8696 11.219 31.6909C11.219 30.5122 10.3953 29.0779 9.37279 28.4814ZM22.3244 59.6108C20.251 60.2073 17.6664 60.0085 15.9338 59.0144C15.0107 58.4747 14.4853 57.793 14.3575 57.0972L14.7835 59.2132C14.9113 59.7812 15.309 60.3209 15.9906 60.7753L16.5161 59.7954L17.0557 61.315C19.0439 62.0535 21.7422 61.9256 23.4889 60.9316C23.8014 60.7469 24.057 60.5481 24.2842 60.3351C23.6168 60.1079 22.9635 59.8664 22.3244 59.6108Z" fill="#36373B"/>
<path d="M29.0133 9.69304L40.4739 3.0752C40.6727 2.96159 40.9283 2.96159 41.1413 3.0752L41.5958 3.33082C41.9934 3.55804 42.036 4.0977 41.7094 4.38172C41.681 4.35332 41.6384 4.31072 41.5958 4.29652L41.1413 4.04089C40.9425 3.92728 40.6869 3.92728 40.4739 4.04089L29.0133 10.6587C28.9707 10.6871 28.9281 10.7155 28.8997 10.7439C28.5731 10.4599 28.6157 9.92026 29.0133 9.69304ZM11.9575 8.54273C7.20004 4.56634 3.73491 5.27641 3.73491 5.27641C3.73491 5.27641 2.47099 10.3605 7.11483 19.7902C7.11483 19.7902 10.438 12.7037 19.0298 13.6126C19.0298 13.6126 16.715 12.5191 11.9575 8.54273ZM29.34 17.7594C29.269 17.9156 31.8678 19.2222 32.8619 19.7902C35.2903 21.1819 39.4087 25.3145 40.7437 31.4637C40.7437 31.4637 45.3733 20.2447 38.8123 10.5167C38.8123 10.5167 31.7826 12.6753 29.34 17.7594Z" fill="#FF8F8F"/>
</svg>
